<?xml version="1.0" encoding="UTF-8" standalone="no"?><svg xmlns="http://www.w3.org/2000/svg" xmlns:xlink="http://www.w3.org/1999/xlink" contentScriptType="application/ecmascript" contentStyleType="text/css" height="1455px" preserveAspectRatio="none" style="width:831px;height:1455px;" version="1.1" viewBox="0 0 831 1455" width="831px" zoomAndPan="magnify">
    <defs>
        <filter height="300%" id="frwomo481bdy4" width="300%" x="-1" y="-1">
            <feGaussianBlur result="blurOut" stdDeviation="2.0" />
            <feColorMatrix in="blurOut" result="blurOut2" type="matrix" values="0 0 0 0 0 0 0 0 0 0 0 0 0 0 0 0 0 0 .4 0" />
            <feOffset dx="4.0" dy="4.0" in="blurOut2" result="blurOut3" />
            <feBlend in="SourceGraphic" in2="blurOut3" mode="normal" />
        </filter>
    </defs>
    <g>
        <rect fill="#FFFFFF" filter="url(#frwomo481bdy4)" height="1006.25" style="stroke: #A80036; stroke-width: 1.0;" width="10" x="107.5" y="399.7578" />
        <rect fill="#FFFFFF" filter="url(#frwomo481bdy4)" height="191.9297" style="stroke: #000000; stroke-width: 2.0;" width="756.5" x="64" y="1206.0781" />
        <line style="stroke: #A80036; stroke-width: 1.0; stroke-dasharray: 5.0,5.0;" x1="112" x2="112" y1="38.2969" y2="1415.0078" />
        <line style="stroke: #A80036; stroke-width: 1.0; stroke-dasharray: 5.0,5.0;" x1="776.5" x2="776.5" y1="38.2969" y2="1415.0078" />
        <rect fill="#FEFECE" filter="url(#frwomo481bdy4)" height="30.2969" style="stroke: #A80036; stroke-width: 1.5;" width="73" x="74" y="3" /><text fill="#000000" font-family="sans-serif" font-size="14" lengthAdjust="spacingAndGlyphs" textLength="59" x="81" y="22.9951">Terminal</text>
        <rect fill="#FEFECE" filter="url(#frwomo481bdy4)" height="30.2969" style="stroke: #A80036; stroke-width: 1.5;" width="73" x="74" y="1414.0078" /><text fill="#000000" font-family="sans-serif" font-size="14" lengthAdjust="spacingAndGlyphs" textLength="59" x="81" y="1434.0029">Terminal</text>
        <rect fill="#FEFECE" filter="url(#frwomo481bdy4)" height="30.2969" style="stroke: #A80036; stroke-width: 1.5;" width="64" x="742.5" y="3" /><text fill="#000000" font-family="sans-serif" font-size="14" lengthAdjust="spacingAndGlyphs" textLength="50" x="749.5" y="22.9951">Reader</text>
        <rect fill="#FEFECE" filter="url(#frwomo481bdy4)" height="30.2969" style="stroke: #A80036; stroke-width: 1.5;" width="64" x="742.5" y="1414.0078" /><text fill="#000000" font-family="sans-serif" font-size="14" lengthAdjust="spacingAndGlyphs" textLength="50" x="749.5" y="1434.0029">Reader</text>
        <rect fill="#FFFFFF" filter="url(#frwomo481bdy4)" height="1006.25" style="stroke: #A80036; stroke-width: 1.0;" width="10" x="107.5" y="399.7578" />
        <rect fill="#FBFB77" filter="url(#frwomo481bdy4)" height="23" style="stroke: #A80036; stroke-width: 1.0;" width="731" x="78" y="53.2969" /><text fill="#000000" font-family="sans-serif" font-size="13" lengthAdjust="spacingAndGlyphs" textLength="114" x="386.75" y="69.3638">check PICC in Slot</text>
        <polygon fill="#A80036" points="764.5,98.5625,774.5,102.5625,764.5,106.5625,768.5,102.5625" style="stroke: #A80036; stroke-width: 1.0;" />
        <line style="stroke: #A80036; stroke-width: 1.0;" x1="112.5" x2="770.5" y1="102.5625" y2="102.5625" /><text fill="#000000" font-family="sans-serif" font-size="13" lengthAdjust="spacingAndGlyphs" textLength="221" x="119.5" y="97.4966">PC_to_RDR_GetSlotStatus(Slot=0)</text>
        <polygon fill="#A80036" points="123.5,127.6953,113.5,131.6953,123.5,135.6953,119.5,131.6953" style="stroke: #A80036; stroke-width: 1.0;" />
        <line style="stroke: #A80036; stroke-width: 1.0;" x1="117.5" x2="775.5" y1="131.6953" y2="131.6953" /><text fill="#000000" font-family="sans-serif" font-size="13" lengthAdjust="spacingAndGlyphs" textLength="26" x="129.5" y="126.6294">ACK</text>
        <polygon fill="#A80036" points="123.5,156.8281,113.5,160.8281,123.5,164.8281,119.5,160.8281" style="stroke: #A80036; stroke-width: 1.0;" />
        <line style="stroke: #A80036; stroke-width: 1.0;" x1="117.5" x2="775.5" y1="160.8281" y2="160.8281" /><text fill="#000000" font-family="sans-serif" font-size="13" lengthAdjust="spacingAndGlyphs" textLength="300" x="129.5" y="155.7622">RDR_to_PC_SlotStatus(Slot=0) : ICCStatus = 0</text>
        <rect fill="#FBFB77" filter="url(#frwomo481bdy4)" height="23" style="stroke: #A80036; stroke-width: 1.0;" width="731" x="78" y="173.8281" /><text fill="#000000" font-family="sans-serif" font-size="13" lengthAdjust="spacingAndGlyphs" textLength="132" x="377.75" y="189.895">check serial_number</text>
        <polygon fill="#A80036" points="764.5,219.0938,774.5,223.0938,764.5,227.0938,768.5,223.0938" style="stroke: #A80036; stroke-width: 1.0;" />
        <line style="stroke: #A80036; stroke-width: 1.0;" x1="112.5" x2="770.5" y1="223.0938" y2="223.0938" /><text fill="#000000" font-family="sans-serif" font-size="13" lengthAdjust="spacingAndGlyphs" textLength="468" x="119.5" y="218.0278">PC_to_RDR_XfrBlock(Data=FAST_READ(StartAddr=0x00,EndAddr=0x02))</text>
        <polygon fill="#A80036" points="123.5,248.2266,113.5,252.2266,123.5,256.2266,119.5,252.2266" style="stroke: #A80036; stroke-width: 1.0;" />
        <line style="stroke: #A80036; stroke-width: 1.0;" x1="117.5" x2="775.5" y1="252.2266" y2="252.2266" /><text fill="#000000" font-family="sans-serif" font-size="13" lengthAdjust="spacingAndGlyphs" textLength="26" x="129.5" y="247.1606">ACK</text>
        <polygon fill="#A80036" points="123.5,277.3594,113.5,281.3594,123.5,285.3594,119.5,281.3594" style="stroke: #A80036; stroke-width: 1.0;" />
        <line style="stroke: #A80036; stroke-width: 1.0;" x1="117.5" x2="775.5" y1="281.3594" y2="281.3594" /><text fill="#000000" font-family="sans-serif" font-size="13" lengthAdjust="spacingAndGlyphs" textLength="370" x="129.5" y="276.2935">RDR_to_PC_DataBlock(Data=ACK(Data=binary 12 bytes))</text>
        <path d="M8,294.3594 L8,319.3594 L214,319.3594 L214,304.3594 L204,294.3594 L8,294.3594 " fill="#FBFB77" filter="url(#frwomo481bdy4)" style="stroke: #A80036; stroke-width: 1.0;" />
        <path d="M204,294.3594 L204,304.3594 L214,304.3594 L204,294.3594 " fill="#FBFB77" style="stroke: #A80036; stroke-width: 1.0;" /><text fill="#000000" font-family="sans-serif" font-size="13" lengthAdjust="spacingAndGlyphs" textLength="185" x="14" y="311.4263">serial_number in first 9 bytes</text>
        <line style="stroke: #A80036; stroke-width: 1.0;" x1="112.5" x2="154.5" y1="349.625" y2="349.625" />
        <line style="stroke: #A80036; stroke-width: 1.0;" x1="154.5" x2="154.5" y1="349.625" y2="362.625" />
        <line style="stroke: #A80036; stroke-width: 1.0;" x1="113.5" x2="154.5" y1="362.625" y2="362.625" />
        <polygon fill="#A80036" points="123.5,358.625,113.5,362.625,123.5,366.625,119.5,362.625" style="stroke: #A80036; stroke-width: 1.0;" /><text fill="#000000" font-family="sans-serif" font-size="13" lengthAdjust="spacingAndGlyphs" textLength="138" x="119.5" y="344.5591">check(serial_number)</text>
        <line style="stroke: #A80036; stroke-width: 1.0; stroke-dasharray: 2.0,2.0;" x1="112.5" x2="159.5" y1="386.7578" y2="386.7578" />
        <line style="stroke: #A80036; stroke-width: 1.0; stroke-dasharray: 2.0,2.0;" x1="159.5" x2="159.5" y1="386.7578" y2="399.7578" />
        <line style="stroke: #A80036; stroke-width: 1.0; stroke-dasharray: 2.0,2.0;" x1="118.5" x2="159.5" y1="399.7578" y2="399.7578" />
        <polygon fill="#A80036" points="128.5,395.7578,118.5,399.7578,128.5,403.7578,124.5,399.7578" style="stroke: #A80036; stroke-width: 1.0;" /><text fill="#000000" font-family="sans-serif" font-size="13" lengthAdjust="spacingAndGlyphs" textLength="278" x="124.5" y="381.6919">check(serial_number) : serial_number in list</text>
        <rect fill="#FBFB77" filter="url(#frwomo481bdy4)" height="23" style="stroke: #A80036; stroke-width: 1.0;" width="731" x="78" y="417.7578" /><text fill="#000000" font-family="sans-serif" font-size="13" lengthAdjust="spacingAndGlyphs" textLength="106" x="390.75" y="433.8247">write Static Data</text>
        <path d="M42,450.8906 L42,475.8906 L178,475.8906 L178,460.8906 L168,450.8906 L42,450.8906 " fill="#FBFB77" filter="url(#frwomo481bdy4)" style="stroke: #A80036; stroke-width: 1.0;" />
        <path d="M168,450.8906 L168,460.8906 L178,460.8906 L168,450.8906 " fill="#FBFB77" style="stroke: #A80036; stroke-width: 1.0;" /><text fill="#000000" font-family="sans-serif" font-size="13" lengthAdjust="spacingAndGlyphs" textLength="115" x="48" y="467.9575">write Loader GUID</text>
        <polygon fill="#A80036" points="764.5,502.1563,774.5,506.1563,764.5,510.1563,768.5,506.1563" style="stroke: #A80036; stroke-width: 1.0;" />
        <line style="stroke: #A80036; stroke-width: 1.0;" x1="117.5" x2="770.5" y1="506.1563" y2="506.1563" /><text fill="#000000" font-family="sans-serif" font-size="13" lengthAdjust="spacingAndGlyphs" textLength="565" x="124.5" y="501.0903">PC_to_RDR_XfrBlock(Data=WRITE(Addr=fieldLoaderGUID1 offset, Data=IMEI int 4 bytes))</text>
        <polygon fill="#A80036" points="128.5,531.2891,118.5,535.2891,128.5,539.2891,124.5,535.2891" style="stroke: #A80036; stroke-width: 1.0;" />
        <line style="stroke: #A80036; stroke-width: 1.0;" x1="122.5" x2="775.5" y1="535.2891" y2="535.2891" /><text fill="#000000" font-family="sans-serif" font-size="13" lengthAdjust="spacingAndGlyphs" textLength="26" x="134.5" y="530.2231">ACK</text>
        <polygon fill="#A80036" points="128.5,560.4219,118.5,564.4219,128.5,568.4219,124.5,564.4219" style="stroke: #A80036; stroke-width: 1.0;" />
        <line style="stroke: #A80036; stroke-width: 1.0;" x1="122.5" x2="775.5" y1="564.4219" y2="564.4219" /><text fill="#000000" font-family="sans-serif" font-size="13" lengthAdjust="spacingAndGlyphs" textLength="178" x="134.5" y="559.356">RDR_to_PC_DataBlock(ACK)</text>
        <path d="M44,577.4219 L44,602.4219 L176,602.4219 L176,587.4219 L166,577.4219 L44,577.4219 " fill="#FBFB77" filter="url(#frwomo481bdy4)" style="stroke: #A80036; stroke-width: 1.0;" />
        <path d="M166,577.4219 L166,587.4219 L176,587.4219 L166,577.4219 " fill="#FBFB77" style="stroke: #A80036; stroke-width: 1.0;" /><text fill="#000000" font-family="sans-serif" font-size="13" lengthAdjust="spacingAndGlyphs" textLength="111" x="50" y="594.4888">write Coordinates</text>
        <polygon fill="#A80036" points="764.5,628.6875,774.5,632.6875,764.5,636.6875,768.5,632.6875" style="stroke: #A80036; stroke-width: 1.0;" />
        <line style="stroke: #A80036; stroke-width: 1.0;" x1="117.5" x2="770.5" y1="632.6875" y2="632.6875" /><text fill="#000000" font-family="sans-serif" font-size="13" lengthAdjust="spacingAndGlyphs" textLength="613" x="124.5" y="627.6216">PC_to_RDR_XfrBlock(Data=WRITE(Addr=fieldLocationLatitude offset, Data=Latitude int 4 bytes))</text>
        <polygon fill="#A80036" points="128.5,657.8203,118.5,661.8203,128.5,665.8203,124.5,661.8203" style="stroke: #A80036; stroke-width: 1.0;" />
        <line style="stroke: #A80036; stroke-width: 1.0;" x1="122.5" x2="775.5" y1="661.8203" y2="661.8203" /><text fill="#000000" font-family="sans-serif" font-size="13" lengthAdjust="spacingAndGlyphs" textLength="26" x="134.5" y="656.7544">ACK</text>
        <polygon fill="#A80036" points="128.5,686.9531,118.5,690.9531,128.5,694.9531,124.5,690.9531" style="stroke: #A80036; stroke-width: 1.0;" />
        <line style="stroke: #A80036; stroke-width: 1.0;" x1="122.5" x2="775.5" y1="690.9531" y2="690.9531" /><text fill="#000000" font-family="sans-serif" font-size="13" lengthAdjust="spacingAndGlyphs" textLength="220" x="134.5" y="685.8872">RDR_to_PC_DataBlock(Data=ACK)</text>
        <polygon fill="#A80036" points="764.5,716.0859,774.5,720.0859,764.5,724.0859,768.5,720.0859" style="stroke: #A80036; stroke-width: 1.0;" />
        <line style="stroke: #A80036; stroke-width: 1.0;" x1="117.5" x2="770.5" y1="720.0859" y2="720.0859" /><text fill="#000000" font-family="sans-serif" font-size="13" lengthAdjust="spacingAndGlyphs" textLength="635" x="124.5" y="715.02">PC_to_RDR_XfrBlock(Data=WRITE(Addr=fieldLocationLongitude offset, Data=Longitude int 4 bytes))</text>
        <polygon fill="#A80036" points="128.5,745.2188,118.5,749.2188,128.5,753.2188,124.5,749.2188" style="stroke: #A80036; stroke-width: 1.0;" />
        <line style="stroke: #A80036; stroke-width: 1.0;" x1="122.5" x2="775.5" y1="749.2188" y2="749.2188" /><text fill="#000000" font-family="sans-serif" font-size="13" lengthAdjust="spacingAndGlyphs" textLength="26" x="134.5" y="744.1528">ACK</text>
        <polygon fill="#A80036" points="128.5,774.3516,118.5,778.3516,128.5,782.3516,124.5,778.3516" style="stroke: #A80036; stroke-width: 1.0;" />
        <line style="stroke: #A80036; stroke-width: 1.0;" x1="122.5" x2="775.5" y1="778.3516" y2="778.3516" /><text fill="#000000" font-family="sans-serif" font-size="13" lengthAdjust="spacingAndGlyphs" textLength="220" x="134.5" y="773.2856">RDR_to_PC_DataBlock(Data=ACK)</text>
        <path d="M22,791.3516 L22,816.3516 L198,816.3516 L198,801.3516 L188,791.3516 L22,791.3516 " fill="#FBFB77" filter="url(#frwomo481bdy4)" style="stroke: #A80036; stroke-width: 1.0;" />
        <path d="M188,791.3516 L188,801.3516 L198,801.3516 L188,791.3516 " fill="#FBFB77" style="stroke: #A80036; stroke-width: 1.0;" /><text fill="#000000" font-family="sans-serif" font-size="13" lengthAdjust="spacingAndGlyphs" textLength="155" x="28" y="808.4185">write Loading Start Time</text>
        <polygon fill="#A80036" points="764.5,842.6172,774.5,846.6172,764.5,850.6172,768.5,846.6172" style="stroke: #A80036; stroke-width: 1.0;" />
        <line style="stroke: #A80036; stroke-width: 1.0;" x1="117.5" x2="770.5" y1="846.6172" y2="846.6172" /><text fill="#000000" font-family="sans-serif" font-size="13" lengthAdjust="spacingAndGlyphs" textLength="574" x="124.5" y="841.5513">PC_to_RDR_XfrBlock(Data=WRITE(Addr=startLoadDate offset, Data=TIMESTAMP 4 bytes))</text>
        <polygon fill="#A80036" points="128.5,871.75,118.5,875.75,128.5,879.75,124.5,875.75" style="stroke: #A80036; stroke-width: 1.0;" />
        <line style="stroke: #A80036; stroke-width: 1.0;" x1="122.5" x2="775.5" y1="875.75" y2="875.75" /><text fill="#000000" font-family="sans-serif" font-size="13" lengthAdjust="spacingAndGlyphs" textLength="26" x="134.5" y="870.6841">ACK</text>
        <polygon fill="#A80036" points="128.5,900.8828,118.5,904.8828,128.5,908.8828,124.5,904.8828" style="stroke: #A80036; stroke-width: 1.0;" />
        <line style="stroke: #A80036; stroke-width: 1.0;" x1="122.5" x2="775.5" y1="904.8828" y2="904.8828" /><text fill="#000000" font-family="sans-serif" font-size="13" lengthAdjust="spacingAndGlyphs" textLength="220" x="134.5" y="899.8169">RDR_to_PC_DataBlock(Data=ACK)</text>
        <path d="M36,917.8828 L36,942.8828 L184,942.8828 L184,927.8828 L174,917.8828 L36,917.8828 " fill="#FBFB77" filter="url(#frwomo481bdy4)" style="stroke: #A80036; stroke-width: 1.0;" />
        <path d="M174,917.8828 L174,927.8828 L184,927.8828 L174,917.8828 " fill="#FBFB77" style="stroke: #A80036; stroke-width: 1.0;" /><text fill="#000000" font-family="sans-serif" font-size="13" lengthAdjust="spacingAndGlyphs" textLength="127" x="42" y="934.9497">write loaderShares1</text>
        <polygon fill="#A80036" points="764.5,969.1484,774.5,973.1484,764.5,977.1484,768.5,973.1484" style="stroke: #A80036; stroke-width: 1.0;" />
        <line style="stroke: #A80036; stroke-width: 1.0;" x1="117.5" x2="770.5" y1="973.1484" y2="973.1484" /><text fill="#000000" font-family="sans-serif" font-size="13" lengthAdjust="spacingAndGlyphs" textLength="459" x="124.5" y="968.0825">PC_to_RDR_XfrBlock(Data=WRITE(Addr=loaderShares1 offset, Data=1))</text>
        <polygon fill="#A80036" points="128.5,998.2813,118.5,1002.2813,128.5,1006.2813,124.5,1002.2813" style="stroke: #A80036; stroke-width: 1.0;" />
        <line style="stroke: #A80036; stroke-width: 1.0;" x1="122.5" x2="775.5" y1="1002.2813" y2="1002.2813" /><text fill="#000000" font-family="sans-serif" font-size="13" lengthAdjust="spacingAndGlyphs" textLength="26" x="134.5" y="997.2153">ACK</text>
        <polygon fill="#A80036" points="128.5,1027.4141,118.5,1031.4141,128.5,1035.4141,124.5,1031.4141" style="stroke: #A80036; stroke-width: 1.0;" />
        <line style="stroke: #A80036; stroke-width: 1.0;" x1="122.5" x2="775.5" y1="1031.4141" y2="1031.4141" /><text fill="#000000" font-family="sans-serif" font-size="13" lengthAdjust="spacingAndGlyphs" textLength="220" x="134.5" y="1026.3481">RDR_to_PC_DataBlock(Data=ACK)</text>
        <path d="M50,1044.4141 L50,1069.4141 L171,1069.4141 L171,1054.4141 L161,1044.4141 L50,1044.4141 " fill="#FBFB77" filter="url(#frwomo481bdy4)" style="stroke: #A80036; stroke-width: 1.0;" />
        <path d="M161,1044.4141 L161,1054.4141 L171,1054.4141 L161,1044.4141 " fill="#FBFB77" style="stroke: #A80036; stroke-width: 1.0;" /><text fill="#000000" font-family="sans-serif" font-size="13" lengthAdjust="spacingAndGlyphs" textLength="100" x="56" y="1061.481">write stateFlags</text>
        <polygon fill="#A80036" points="764.5,1095.6797,774.5,1099.6797,764.5,1103.6797,768.5,1099.6797" style="stroke: #A80036; stroke-width: 1.0;" />
        <line style="stroke: #A80036; stroke-width: 1.0;" x1="117.5" x2="770.5" y1="1099.6797" y2="1099.6797" /><text fill="#000000" font-family="sans-serif" font-size="13" lengthAdjust="spacingAndGlyphs" textLength="432" x="124.5" y="1094.6138">PC_to_RDR_XfrBlock(Data=WRITE(Addr=stateFlags offset, Data=1))</text>
        <polygon fill="#A80036" points="128.5,1124.8125,118.5,1128.8125,128.5,1132.8125,124.5,1128.8125" style="stroke: #A80036; stroke-width: 1.0;" />
        <line style="stroke: #A80036; stroke-width: 1.0;" x1="122.5" x2="775.5" y1="1128.8125" y2="1128.8125" /><text fill="#000000" font-family="sans-serif" font-size="13" lengthAdjust="spacingAndGlyphs" textLength="26" x="134.5" y="1123.7466">ACK</text>
        <polygon fill="#A80036" points="128.5,1153.9453,118.5,1157.9453,128.5,1161.9453,124.5,1157.9453" style="stroke: #A80036; stroke-width: 1.0;" />
        <line style="stroke: #A80036; stroke-width: 1.0;" x1="122.5" x2="775.5" y1="1157.9453" y2="1157.9453" /><text fill="#000000" font-family="sans-serif" font-size="13" lengthAdjust="spacingAndGlyphs" textLength="220" x="134.5" y="1152.8794">RDR_to_PC_DataBlock(Data=ACK)</text>
        <rect fill="#FBFB77" filter="url(#frwomo481bdy4)" height="23" style="stroke: #A80036; stroke-width: 1.0;" width="731" x="78" y="1170.9453" /><text fill="#000000" font-family="sans-serif" font-size="13" lengthAdjust="spacingAndGlyphs" textLength="93" x="397.25" y="1187.0122">write End Time</text>
        <path d="M64,1206.0781 L141,1206.0781 L141,1213.0781 L131,1223.0781 L64,1223.0781 L64,1206.0781 " fill="#EEEEEE" style="stroke: #000000; stroke-width: 1.0;" />
        <rect fill="none" height="191.9297" style="stroke: #000000; stroke-width: 2.0;" width="756.5" x="64" y="1206.0781" /><text fill="#000000" font-family="sans-serif" font-size="13" font-weight="bold" lengthAdjust="spacingAndGlyphs" textLength="32" x="79" y="1219.145">loop</text><text fill="#000000" font-family="sans-serif" font-size="11" font-weight="bold" lengthAdjust="spacingAndGlyphs" textLength="103" x="156" y="1218.2886">[ICCStatus != 2]</text>
        <polygon fill="#A80036" points="764.5,1240.3438,774.5,1244.3438,764.5,1248.3438,768.5,1244.3438" style="stroke: #A80036; stroke-width: 1.0;" />
        <line style="stroke: #A80036; stroke-width: 1.0;" x1="117.5" x2="770.5" y1="1244.3438" y2="1244.3438" /><text fill="#000000" font-family="sans-serif" font-size="13" lengthAdjust="spacingAndGlyphs" textLength="572" x="124.5" y="1239.2778">PC_to_RDR_XfrBlock(Data=WRITE(Addr=stopLoadDate offset, Data=TIMESTAMP 4 bytes))</text>
        <polygon fill="#A80036" points="128.5,1269.4766,118.5,1273.4766,128.5,1277.4766,124.5,1273.4766" style="stroke: #A80036; stroke-width: 1.0;" />
        <line style="stroke: #A80036; stroke-width: 1.0;" x1="122.5" x2="775.5" y1="1273.4766" y2="1273.4766" /><text fill="#000000" font-family="sans-serif" font-size="13" lengthAdjust="spacingAndGlyphs" textLength="26" x="134.5" y="1268.4106">ACK</text>
        <polygon fill="#A80036" points="128.5,1298.6094,118.5,1302.6094,128.5,1306.6094,124.5,1302.6094" style="stroke: #A80036; stroke-width: 1.0;" />
        <line style="stroke: #A80036; stroke-width: 1.0;" x1="122.5" x2="775.5" y1="1302.6094" y2="1302.6094" /><text fill="#000000" font-family="sans-serif" font-size="13" lengthAdjust="spacingAndGlyphs" textLength="220" x="134.5" y="1297.5435">RDR_to_PC_DataBlock(Data=ACK)</text>
        <polygon fill="#A80036" points="764.5,1327.7422,774.5,1331.7422,764.5,1335.7422,768.5,1331.7422" style="stroke: #A80036; stroke-width: 1.0;" />
        <line style="stroke: #A80036; stroke-width: 1.0;" x1="117.5" x2="770.5" y1="1331.7422" y2="1331.7422" /><text fill="#000000" font-family="sans-serif" font-size="13" lengthAdjust="spacingAndGlyphs" textLength="221" x="124.5" y="1326.6763">PC_to_RDR_GetSlotStatus(Slot=0)</text>
        <polygon fill="#A80036" points="128.5,1356.875,118.5,1360.875,128.5,1364.875,124.5,1360.875" style="stroke: #A80036; stroke-width: 1.0;" />
        <line style="stroke: #A80036; stroke-width: 1.0;" x1="122.5" x2="775.5" y1="1360.875" y2="1360.875" /><text fill="#000000" font-family="sans-serif" font-size="13" lengthAdjust="spacingAndGlyphs" textLength="26" x="134.5" y="1355.8091">ACK</text>
        <polygon fill="#A80036" points="128.5,1386.0078,118.5,1390.0078,128.5,1394.0078,124.5,1390.0078" style="stroke: #A80036; stroke-width: 1.0;" />
        <line style="stroke: #A80036; stroke-width: 1.0;" x1="122.5" x2="775.5" y1="1390.0078" y2="1390.0078" /><text fill="#000000" font-family="sans-serif" font-size="13" lengthAdjust="spacingAndGlyphs" textLength="273" x="134.5" y="1384.9419">RDR_to_PC_SlotStatus(Slot=0) : ICCStatus</text>
        <!--MD5=[547ae4243f8a2ab160fab40dfc3a4b87]
@startuml












participant "Terminal" as hst
participant "Reader" as rdr

rnote over hst, rdr
  check PICC in Slot
end rnote

  hst -> rdr : PC_to_RDR_GetSlotStatus(Slot=0)
  rdr -> hst : ACK
  rdr -> hst : RDR_to_PC_SlotStatus(Slot=0) : ICCStatus = 0

rnote over hst, rdr
  check serial_number
end rnote

  hst -> rdr : PC_to_RDR_XfrBlock(Data=FAST_READ(StartAddr=0x00,EndAddr=0x02))
  rdr -> hst : ACK
  rdr -> hst : RDR_to_PC_DataBlock(Data=ACK(Data=binary 12 bytes))
  note over hst: serial_number in first 9 bytes
  hst -> hst : check(serial_number)
  hst - -> hst : check(serial_number) : serial_number in list
  activate hst

rnote over hst, rdr
  write Static Data
end rnote


  note over hst
    write Loader GUID
  end note
  hst -> rdr : PC_to_RDR_XfrBlock(Data=WRITE(Addr=fieldLoaderGUID1 offset, Data=IMEI int 4 bytes))
  rdr -> hst : ACK
  rdr -> hst : RDR_to_PC_DataBlock(ACK)

  note over hst
    write Coordinates
  end note
  hst -> rdr : PC_to_RDR_XfrBlock(Data=WRITE(Addr=fieldLocationLatitude offset, Data=Latitude int 4 bytes))
  rdr -> hst : ACK
  rdr -> hst : RDR_to_PC_DataBlock(Data=ACK)
  hst -> rdr : PC_to_RDR_XfrBlock(Data=WRITE(Addr=fieldLocationLongitude offset, Data=Longitude int 4 bytes))
  rdr -> hst : ACK
  rdr -> hst : RDR_to_PC_DataBlock(Data=ACK)

  note over hst
    write Loading Start Time
  end note
  hst -> rdr : PC_to_RDR_XfrBlock(Data=WRITE(Addr=startLoadDate offset, Data=TIMESTAMP 4 bytes))
  rdr -> hst : ACK
  rdr -> hst : RDR_to_PC_DataBlock(Data=ACK)

  note over hst
    write loaderShares1
  end note
  hst -> rdr : PC_to_RDR_XfrBlock(Data=WRITE(Addr=loaderShares1 offset, Data=1))
  rdr -> hst : ACK
  rdr -> hst : RDR_to_PC_DataBlock(Data=ACK)

  note over hst
    write stateFlags
  end note
  hst -> rdr : PC_to_RDR_XfrBlock(Data=WRITE(Addr=stateFlags offset, Data=1))
  rdr -> hst : ACK
  rdr -> hst : RDR_to_PC_DataBlock(Data=ACK)


rnote over hst, rdr
  write End Time
end rnote

  loop ICCStatus != 2
    hst -> rdr : PC_to_RDR_XfrBlock(Data=WRITE(Addr=stopLoadDate offset, Data=TIMESTAMP 4 bytes))
    rdr -> hst : ACK
    rdr -> hst : RDR_to_PC_DataBlock(Data=ACK)
    hst -> rdr : PC_to_RDR_GetSlotStatus(Slot=0)
    rdr -> hst : ACK
    rdr -> hst : RDR_to_PC_SlotStatus(Slot=0) : ICCStatus
  end



@enduml

PlantUML version 1.2020.05(Fri Mar 20 02:17:32 YEKT 2020)
(GPL source distribution)
Java Runtime: OpenJDK Runtime Environment
JVM: OpenJDK 64-Bit Server VM
Java Version: 11.0.6+10-post-Debian-1deb10u1
Operating System: Linux
Default Encoding: UTF-8
Language: en
Country: US
-->
    </g>
</svg>